<svg xmlns="http://www.w3.org/2000/svg" viewBox="0 0 400 430" width="400" height="430">
<defs>
  <linearGradient id="bgGrad" x1="0" y1="0" x2="0" y2="1">
    <stop offset="0%" stop-color="#181922"/>
    <stop offset="100%" stop-color="#111218"/>
  </linearGradient>
</defs>

<!-- Card Background -->
<rect width="400" height="430" rx="12" fill="url(#bgGrad)"/>
<rect width="400" height="430" rx="12" fill="none" stroke="rgba(255,255,255,0.06)" stroke-width="1.2"/>

<!-- Header Section -->
<g transform="translate(16, 16)">
  <!-- Official Widget Logo (Blue version) -->
  <g transform="scale(0.85)">
    <path d="M 3.5,10 A 8.5,8.5 0 0,0 20.5,10" fill="none" stroke="#60a5fa" stroke-width="1.8" stroke-linecap="round" />
    <path d="M 6.5,10 A 5.5,5.5 0 0,0 17.5,10" fill="none" stroke="#60a5fa" stroke-width="1.8" stroke-linecap="round" opacity="0.6" />
    <path d="M 12,2 C 12,6.5 13.5,8 18,8 C 13.5,8 12,9.5 12,14 C 12,9.5 10.5,8 6,8 C 10.5,8 12,6.5 12,2 Z" fill="#60a5fa" />
    <path d="M 18.5,1.5 C 18.5,2.7 18.9,3.1 20.1,3.1 C 18.9,3.1 18.5,3.5 18.5,4.7 C 18.5,3.5 18.1,3.1 16.9,3.1 C 18.1,3.1 18.5,2.7 18.5,1.5 Z" fill="#60a5fa" />
  </g>
  <text x="28" y="10" font-family="system-ui,-apple-system,sans-serif" font-size="14.5" font-weight="700" fill="#ffffff">AI Usage Monitor</text>
  <text x="28" y="22" font-family="system-ui,-apple-system,sans-serif" font-size="9.5" fill="#9ca3af">Gemini / Code Assist quota</text>
</g>

<!-- Refresh Button -->
<g class="btn" transform="translate(366, 17) scale(0.9)">
  <path d="M13.65 2.35A7 7 0 1 0 16 8h-2a5 5 0 1 1-1.7-3.43L10 7h6V1l-2.35 2.35z" fill="#9ca3af"/>
</g>

<!-- Tab Bar -->
<g transform="translate(0, 0)">
  <!-- Claude Tab (Inactive) -->
  <rect x="16" y="52" width="178" height="28" rx="6" fill="#221e1e" stroke="rgba(204,120,92,0.15)" stroke-width="1"/>
  <circle cx="80" cy="66" r="3" fill="#cc785c"/>
  <text x="90" y="70" font-family="system-ui,-apple-system,sans-serif" font-size="11.5" font-weight="600" fill="#cc785c">Claude</text>

  <!-- Antigravity Tab (Active) -->
  <rect x="206" y="52" width="178" height="28" rx="6" fill="#1e293b" stroke="#3b82f6" stroke-width="1.2"/>
  <circle cx="260" cy="66" r="3" fill="#3b82f6"/>
  <text x="270" y="70" font-family="system-ui,-apple-system,sans-serif" font-size="11.5" font-weight="700" fill="#ffffff">Antigravity</text>
</g>

<!-- User & Status Row -->
<g transform="translate(16, 96)">
  <!-- User Profile Icon -->
  <g fill="none" stroke="#60a5fa" stroke-width="1.5">
    <circle cx="10" cy="6" r="3"/>
    <path d="M3,15 C3,11 6,10 10,10 C14,10 17,11 17,15" stroke-linecap="round"/>
  </g>
  <text x="28" y="13" font-family="system-ui,-apple-system,sans-serif" font-size="11" fill="#9ca3af">sample.user@gmail.com</text>
</g>

<!-- Google AI Pro Badge -->
<rect x="312" y="94" width="72" height="18" rx="4" fill="rgba(34,197,94,0.12)" stroke="rgba(34,197,94,0.3)" stroke-width="1"/>
<text x="348" y="106" text-anchor="middle" font-family="system-ui,-apple-system,sans-serif" font-size="8.5" font-weight="700" fill="#22c55e">Google AI Pro</text>

<!-- Prompt Credits Section -->
<text x="16" y="137" font-family="system-ui,-apple-system,sans-serif" font-size="11.5" font-weight="700" fill="#ffffff">Prompt Credits</text>
<text x="384" y="137" text-anchor="end" font-family="system-ui,-apple-system,sans-serif" font-size="11.5" font-weight="700" fill="#f87171">500 / 50.0K left</text>

<!-- Segmented Bar (Red/Depleted) -->
<g transform="translate(16, 146)">
  <rect x="0" y="0" width="14" height="6" rx="1.5" fill="#ef4444"/>
  <rect x="18" y="0" width="14" height="6" rx="1.5" fill="#ef4444"/>
  <rect x="36" y="0" width="14" height="6" rx="1.5" fill="#ef4444"/>
  <rect x="54" y="0" width="14" height="6" rx="1.5" fill="#ef4444"/>
  <rect x="72" y="0" width="14" height="6" rx="1.5" fill="#ef4444"/>
  <rect x="90" y="0" width="14" height="6" rx="1.5" fill="#ef4444"/>
  <rect x="108" y="0" width="14" height="6" rx="1.5" fill="#ef4444"/>
  <rect x="126" y="0" width="14" height="6" rx="1.5" fill="#ef4444"/>
  <rect x="144" y="0" width="14" height="6" rx="1.5" fill="#ef4444"/>
  <rect x="162" y="0" width="14" height="6" rx="1.5" fill="#ef4444"/>
  <rect x="180" y="0" width="14" height="6" rx="1.5" fill="#ef4444"/>
  <rect x="198" y="0" width="14" height="6" rx="1.5" fill="#ef4444"/>
  <rect x="216" y="0" width="14" height="6" rx="1.5" fill="#ef4444"/>
  <rect x="234" y="0" width="14" height="6" rx="1.5" fill="#ef4444"/>
  <rect x="252" y="0" width="14" height="6" rx="1.5" fill="#ef4444"/>
  <rect x="270" y="0" width="14" height="6" rx="1.5" fill="#ef4444"/>
  <rect x="288" y="0" width="14" height="6" rx="1.5" fill="#ef4444"/>
  <rect x="306" y="0" width="14" height="6" rx="1.5" fill="#ef4444"/>
  <rect x="324" y="0" width="14" height="6" rx="1.5" fill="#ef4444"/>
  <rect x="342" y="0" width="14" height="6" rx="1.5" fill="#ef4444"/>
</g>

<!-- Model Quotas Title -->
<text x="16" y="184" font-family="system-ui,-apple-system,sans-serif" font-size="11" font-weight="700" fill="#9ca3af">Model Quotas</text>

<!-- Model Rows -->
<g transform="translate(0, 196)">
  <!-- GPT-OSS 120B (Medium) -->
  <g transform="translate(0, 0)">
    <text x="16" y="10" font-family="system-ui,-apple-system,sans-serif" font-size="9.8" fill="#c0caf5">GPT-OSS 120B (Medium)</text>
    <rect x="164" y="5" width="184" height="5" rx="2.5" fill="rgba(255,255,255,0.08)"/>
    <rect x="164" y="5" width="110.4" height="5" rx="2.5" fill="#3b82f6"/>
    <text x="384" y="10" text-anchor="end" font-family="system-ui,-apple-system,sans-serif" font-size="10.5" font-weight="700" fill="#ffffff">60%</text>
  </g>

  <!-- Gemini 3.5 Flash (High) -->
  <g transform="translate(0, 18)">
    <text x="16" y="10" font-family="system-ui,-apple-system,sans-serif" font-size="9.8" fill="#c0caf5">Gemini 3.5 Flash (High)</text>
    <rect x="164" y="5" width="184" height="5" rx="2.5" fill="rgba(255,255,255,0.08)"/>
    <rect x="164" y="5" width="73.6" height="5" rx="2.5" fill="#3b82f6"/>
    <text x="384" y="10" text-anchor="end" font-family="system-ui,-apple-system,sans-serif" font-size="10.5" font-weight="700" fill="#ffffff">40%</text>
  </g>

  <!-- Gemini 3.1 Pro (High) -->
  <g transform="translate(0, 36)">
    <text x="16" y="10" font-family="system-ui,-apple-system,sans-serif" font-size="9.8" fill="#c0caf5">Gemini 3.1 Pro (High)</text>
    <rect x="164" y="5" width="184" height="5" rx="2.5" fill="rgba(255,255,255,0.08)"/>
    <rect x="164" y="5" width="73.6" height="5" rx="2.5" fill="#3b82f6"/>
    <text x="384" y="10" text-anchor="end" font-family="system-ui,-apple-system,sans-serif" font-size="10.5" font-weight="700" fill="#ffffff">40%</text>
  </g>

  <!-- Gemini 3.5 Flash (Medi...) -->
  <g transform="translate(0, 54)">
    <text x="16" y="10" font-family="system-ui,-apple-system,sans-serif" font-size="9.8" fill="#c0caf5">Gemini 3.5 Flash (Medi...</text>
    <rect x="164" y="5" width="184" height="5" rx="2.5" fill="rgba(255,255,255,0.08)"/>
    <rect x="164" y="5" width="73.6" height="5" rx="2.5" fill="#3b82f6"/>
    <text x="384" y="10" text-anchor="end" font-family="system-ui,-apple-system,sans-serif" font-size="10.5" font-weight="700" fill="#ffffff">40%</text>
  </g>

  <!-- Claude Opus 4.6 (Thinki...) -->
  <g transform="translate(0, 72)">
    <text x="16" y="10" font-family="system-ui,-apple-system,sans-serif" font-size="9.8" fill="#c0caf5">Claude Opus 4.6 (Thinki...</text>
    <rect x="164" y="5" width="184" height="5" rx="2.5" fill="rgba(255,255,255,0.08)"/>
    <rect x="164" y="5" width="110.4" height="5" rx="2.5" fill="#3b82f6"/>
    <text x="384" y="10" text-anchor="end" font-family="system-ui,-apple-system,sans-serif" font-size="10.5" font-weight="700" fill="#ffffff">60%</text>
  </g>

  <!-- Claude Sonnet 4.6 (Thin...) -->
  <g transform="translate(0, 90)">
    <text x="16" y="10" font-family="system-ui,-apple-system,sans-serif" font-size="9.8" fill="#c0caf5">Claude Sonnet 4.6 (Thin...</text>
    <rect x="164" y="5" width="184" height="5" rx="2.5" fill="rgba(255,255,255,0.08)"/>
    <rect x="164" y="5" width="110.4" height="5" rx="2.5" fill="#3b82f6"/>
    <text x="384" y="10" text-anchor="end" font-family="system-ui,-apple-system,sans-serif" font-size="10.5" font-weight="700" fill="#ffffff">60%</text>
  </g>

  <!-- Gemini 3.1 Pro (Low) -->
  <g transform="translate(0, 108)">
    <text x="16" y="10" font-family="system-ui,-apple-system,sans-serif" font-size="9.8" fill="#c0caf5">Gemini 3.1 Pro (Low)</text>
    <rect x="164" y="5" width="184" height="5" rx="2.5" fill="rgba(255,255,255,0.08)"/>
    <rect x="164" y="5" width="73.6" height="5" rx="2.5" fill="#3b82f6"/>
    <text x="384" y="10" text-anchor="end" font-family="system-ui,-apple-system,sans-serif" font-size="10.5" font-weight="700" fill="#ffffff">40%</text>
  </g>

  <!-- Gemini 3.5 Flash (Low) -->
  <g transform="translate(0, 126)">
    <text x="16" y="10" font-family="system-ui,-apple-system,sans-serif" font-size="9.8" fill="#c0caf5">Gemini 3.5 Flash (Low)</text>
    <rect x="164" y="5" width="184" height="5" rx="2.5" fill="rgba(255,255,255,0.08)"/>
    <rect x="164" y="5" width="73.6" height="5" rx="2.5" fill="#3b82f6"/>
    <text x="384" y="10" text-anchor="end" font-family="system-ui,-apple-system,sans-serif" font-size="10.5" font-weight="700" fill="#ffffff">40%</text>
  </g>
</g>

<!-- Footer Section -->
<!-- Calendar Reset Indicator -->
<g transform="translate(16, 354)">
  <g fill="none" stroke="#9ca3af" stroke-width="1.2">
    <rect x="2" y="4" width="14" height="12" rx="1.5"/>
    <line x1="2" y1="8" x2="16" y2="8"/>
    <line x1="5" y1="2" x2="5" y2="5"/>
    <line x1="13" y1="2" x2="13" y2="5"/>
  </g>
  <text x="24" y="13" font-family="system-ui,-apple-system,sans-serif" font-size="10.5" fill="#9ca3af">Resets May 29, 14:27 (2h 42m)</text>
</g>

<!-- Update Timestamp -->
<text x="384" y="416" text-anchor="end" font-family="system-ui,-apple-system,sans-serif" font-size="9.5" fill="#6b7280">updated 11:43</text>
</svg>
