<svg xmlns="http://www.w3.org/2000/svg" viewBox="0 0 312 168" width="312" height="168">
<defs>
  <linearGradient id="sessionGrad" x1="0" y1="0" x2="1" y2="0">
    <stop offset="0%"   stop-color="#e87272"/>
    <stop offset="100%" stop-color="#e05252"/>
  </linearGradient>
  <linearGradient id="weeklyGrad" x1="0" y1="0" x2="1" y2="0">
    <stop offset="0%"   stop-color="#f7bc50"/>
    <stop offset="100%" stop-color="#f5a623"/>
  </linearGradient>
  <linearGradient id="panelBg" x1="0" y1="0" x2="0" y2="1">
    <stop offset="0%"   stop-color="#1e1e2e"/>
    <stop offset="100%" stop-color="#18181f"/>
  </linearGradient>
</defs>

<!-- Card Background -->
<rect width="312" height="168" rx="10" fill="url(#panelBg)"/>
<rect width="312" height="168" rx="10" fill="none" stroke="rgba(255,255,255,0.09)" stroke-width="1"/>

<!-- Header -->
<g transform="translate(18,18)">
  <!-- Background icon (22px) at opacity 0.22 -->
  <g opacity="0.22" fill="#cc785c" transform="scale(0.92)">
    <path d="M 3.5,10 A 8.5,8.5 0 0,0 20.5,10 M 6.5,10 A 5.5,5.5 0 0,0 17.5,10" fill="none" stroke="#cc785c" stroke-width="1.8" stroke-linecap="round" />
    <path d="M 12,2 C 12,6.5 13.5,8 18,8 C 13.5,8 12,9.5 12,14 C 12,9.5 10.5,8 6,8 C 10.5,8 12,6.5 12,2 Z" />
    <path d="M 18.5,1.5 C 18.5,2.7 18.9,3.1 20.1,3.1 C 18.9,3.1 18.5,3.5 18.5,4.7 C 18.5,3.5 18.1,3.1 16.9,3.1 C 18.1,3.1 18.5,2.7 18.5,1.5 Z" />
  </g>
  <!-- Foreground icon (18px) at opacity 1.0 -->
  <g fill="#cc785c" transform="scale(0.75) translate(2.7, 2.7)">
    <path d="M 3.5,10 A 8.5,8.5 0 0,0 20.5,10 M 6.5,10 A 5.5,5.5 0 0,0 17.5,10" fill="none" stroke="#cc785c" stroke-width="1.8" stroke-linecap="round" />
    <path d="M 12,2 C 12,6.5 13.5,8 18,8 C 13.5,8 12,9.5 12,14 C 12,9.5 10.5,8 6,8 C 10.5,8 12,6.5 12,2 Z" />
    <path d="M 18.5,1.5 C 18.5,2.7 18.9,3.1 20.1,3.1 C 18.9,3.1 18.5,3.5 18.5,4.7 C 18.5,3.5 18.1,3.1 16.9,3.1 C 18.1,3.1 18.5,2.7 18.5,1.5 Z" />
  </g>
</g>
<text x="48" y="25" font-family="sans-serif" font-size="13" font-weight="bold" fill="rgba(255,255,255,0.92)">Claude Usage</text>
<text x="48" y="37" font-family="sans-serif" font-size="9" fill="rgba(255,255,255,0.35)">API quota tracking</text>

<!-- Refresh Button -->
<text x="292" y="29" font-family="sans-serif" font-size="14" fill="rgba(255,255,255,0.4)" text-anchor="middle">↻</text>

<!-- Divider -->
<rect x="16" y="46" width="280" height="1" fill="rgba(255,255,255,0.07)"/>

<!-- ── 5 Hours Row ── -->
<text x="20" y="66" font-family="sans-serif" font-size="11" font-weight="bold" fill="rgba(255,255,255,0.9)">5 Hours</text>
<text x="120" y="66" font-family="sans-serif" font-size="9" fill="rgba(255,255,255,0.35)">· resets 01:40</text>

<!-- Countdown Badge -->
<rect x="206" y="55" width="56" height="16" rx="3" fill="rgba(255,255,255,0.06)" stroke="rgba(255,255,255,0.12)" stroke-width="1"/>
<text x="234" y="66" text-anchor="middle" font-family="sans-serif" font-size="8" fill="rgba(255,255,255,0.7)">
  <animate attributeName="opacity" values="1;0.6;1" dur="2s" repeatCount="indefinite"/>
  in 4h 18m
</text>

<text x="286" y="66" text-anchor="end" font-family="monospace" font-size="13" font-weight="bold" fill="#e05252">10%</text>

<!-- Segmented Bar 5h -->
<g transform="translate(20,72)">
  <!-- 20 segments, 2 filled for 10% -->
  <rect x="0"   y="0" width="10" height="8" rx="2" fill="rgba(255,255,255,0.06)" stroke="rgba(255,255,255,0.10)" stroke-width="1"/>
  <rect x="0"   y="1" width="8"  height="6" rx="1.5" fill="url(#sessionGrad)"/>
  <rect x="12"  y="0" width="10" height="8" rx="2" fill="rgba(255,255,255,0.06)" stroke="rgba(255,255,255,0.10)" stroke-width="1"/>
  <rect x="12"  y="1" width="8"  height="6" rx="1.5" fill="url(#sessionGrad)"/>
  <!-- Empty segments -->
  <rect x="24"  y="0" width="10" height="8" rx="2" fill="rgba(255,255,255,0.06)" stroke="rgba(255,255,255,0.10)" stroke-width="1"/>
  <rect x="36"  y="0" width="10" height="8" rx="2" fill="rgba(255,255,255,0.06)" stroke="rgba(255,255,255,0.10)" stroke-width="1"/>
  <rect x="48"  y="0" width="10" height="8" rx="2" fill="rgba(255,255,255,0.06)" stroke="rgba(255,255,255,0.10)" stroke-width="1"/>
  <rect x="60"  y="0" width="10" height="8" rx="2" fill="rgba(255,255,255,0.06)" stroke="rgba(255,255,255,0.10)" stroke-width="1"/>
  <rect x="72"  y="0" width="10" height="8" rx="2" fill="rgba(255,255,255,0.06)" stroke="rgba(255,255,255,0.10)" stroke-width="1"/>
  <rect x="84"  y="0" width="10" height="8" rx="2" fill="rgba(255,255,255,0.06)" stroke="rgba(255,255,255,0.10)" stroke-width="1"/>
  <rect x="96"  y="0" width="10" height="8" rx="2" fill="rgba(255,255,255,0.06)" stroke="rgba(255,255,255,0.10)" stroke-width="1"/>
  <rect x="108" y="0" width="10" height="8" rx="2" fill="rgba(255,255,255,0.06)" stroke="rgba(255,255,255,0.10)" stroke-width="1"/>
  <rect x="120" y="0" width="10" height="8" rx="2" fill="rgba(255,255,255,0.06)" stroke="rgba(255,255,255,0.10)" stroke-width="1"/>
  <rect x="132" y="0" width="10" height="8" rx="2" fill="rgba(255,255,255,0.06)" stroke="rgba(255,255,255,0.10)" stroke-width="1"/>
  <rect x="144" y="0" width="10" height="8" rx="2" fill="rgba(255,255,255,0.06)" stroke="rgba(255,255,255,0.10)" stroke-width="1"/>
  <rect x="156" y="0" width="10" height="8" rx="2" fill="rgba(255,255,255,0.06)" stroke="rgba(255,255,255,0.10)" stroke-width="1"/>
  <rect x="168" y="0" width="10" height="8" rx="2" fill="rgba(255,255,255,0.06)" stroke="rgba(255,255,255,0.10)" stroke-width="1"/>
  <rect x="180" y="0" width="10" height="8" rx="2" fill="rgba(255,255,255,0.06)" stroke="rgba(255,255,255,0.10)" stroke-width="1"/>
  <rect x="192" y="0" width="10" height="8" rx="2" fill="rgba(255,255,255,0.06)" stroke="rgba(255,255,255,0.10)" stroke-width="1"/>
  <rect x="204" y="0" width="10" height="8" rx="2" fill="rgba(255,255,255,0.06)" stroke="rgba(255,255,255,0.10)" stroke-width="1"/>
  <rect x="216" y="0" width="10" height="8" rx="2" fill="rgba(255,255,255,0.06)" stroke="rgba(255,255,255,0.10)" stroke-width="1"/>
  <rect x="228" y="0" width="10" height="8" rx="2" fill="rgba(255,255,255,0.06)" stroke="rgba(255,255,255,0.10)" stroke-width="1"/>
</g>

<!-- ── 7 Days Row ── -->
<text x="20" y="106" font-family="sans-serif" font-size="11" font-weight="bold" fill="rgba(255,255,255,0.9)">7 Days</text>
<text x="106" y="106" font-family="sans-serif" font-size="9" fill="rgba(255,255,255,0.35)">· resets May 23, 11:00</text>

<!-- Countdown Badge -->
<rect x="206" y="95" width="56" height="16" rx="3" fill="rgba(255,255,255,0.06)" stroke="rgba(255,255,255,0.12)" stroke-width="1"/>
<text x="234" y="106" text-anchor="middle" font-family="sans-serif" font-size="8" fill="rgba(255,255,255,0.7)">in 13h 38m</text>

<text x="286" y="106" text-anchor="end" font-family="monospace" font-size="13" font-weight="bold" fill="#f5a623">100%</text>

<!-- Segmented Bar 7d -->
<g transform="translate(20,112)">
  <!-- 20 segments, 20 filled for 100% -->
  <rect x="0"   y="0" width="10" height="8" rx="2" fill="rgba(255,255,255,0.06)" stroke="rgba(255,255,255,0.10)" stroke-width="1"/>
  <rect x="0"   y="1" width="8"  height="6" rx="1.5" fill="url(#weeklyGrad)"/>
  <rect x="12"  y="0" width="10" height="8" rx="2" fill="rgba(255,255,255,0.06)" stroke="rgba(255,255,255,0.10)" stroke-width="1"/>
  <rect x="12"  y="1" width="8"  height="6" rx="1.5" fill="url(#weeklyGrad)"/>
  <rect x="24"  y="0" width="10" height="8" rx="2" fill="rgba(255,255,255,0.06)" stroke="rgba(255,255,255,0.10)" stroke-width="1"/>
  <rect x="24"  y="1" width="8"  height="6" rx="1.5" fill="url(#weeklyGrad)"/>
  <rect x="36"  y="0" width="10" height="8" rx="2" fill="rgba(255,255,255,0.06)" stroke="rgba(255,255,255,0.10)" stroke-width="1"/>
  <rect x="36"  y="1" width="8"  height="6" rx="1.5" fill="url(#weeklyGrad)"/>
  <rect x="48"  y="0" width="10" height="8" rx="2" fill="rgba(255,255,255,0.06)" stroke="rgba(255,255,255,0.10)" stroke-width="1"/>
  <rect x="48"  y="1" width="8"  height="6" rx="1.5" fill="url(#weeklyGrad)"/>
  <rect x="60"  y="0" width="10" height="8" rx="2" fill="rgba(255,255,255,0.06)" stroke="rgba(255,255,255,0.10)" stroke-width="1"/>
  <rect x="60"  y="1" width="8"  height="6" rx="1.5" fill="url(#weeklyGrad)"/>
  <rect x="72"  y="0" width="10" height="8" rx="2" fill="rgba(255,255,255,0.06)" stroke="rgba(255,255,255,0.10)" stroke-width="1"/>
  <rect x="72"  y="1" width="8"  height="6" rx="1.5" fill="url(#weeklyGrad)"/>
  <rect x="84"  y="0" width="10" height="8" rx="2" fill="rgba(255,255,255,0.06)" stroke="rgba(255,255,255,0.10)" stroke-width="1"/>
  <rect x="84"  y="1" width="8"  height="6" rx="1.5" fill="url(#weeklyGrad)"/>
  <rect x="96"  y="0" width="10" height="8" rx="2" fill="rgba(255,255,255,0.06)" stroke="rgba(255,255,255,0.10)" stroke-width="1"/>
  <rect x="96"  y="1" width="8"  height="6" rx="1.5" fill="url(#weeklyGrad)"/>
  <rect x="108" y="0" width="10" height="8" rx="2" fill="rgba(255,255,255,0.06)" stroke="rgba(255,255,255,0.10)" stroke-width="1"/>
  <rect x="108" y="1" width="8"  height="6" rx="1.5" fill="url(#weeklyGrad)"/>
  <rect x="120" y="0" width="10" height="8" rx="2" fill="rgba(255,255,255,0.06)" stroke="rgba(255,255,255,0.10)" stroke-width="1"/>
  <rect x="120" y="1" width="8"  height="6" rx="1.5" fill="url(#weeklyGrad)"/>
  <rect x="132" y="0" width="10" height="8" rx="2" fill="rgba(255,255,255,0.06)" stroke="rgba(255,255,255,0.10)" stroke-width="1"/>
  <rect x="132" y="1" width="8"  height="6" rx="1.5" fill="url(#weeklyGrad)"/>
  <rect x="144" y="0" width="10" height="8" rx="2" fill="rgba(255,255,255,0.06)" stroke="rgba(255,255,255,0.10)" stroke-width="1"/>
  <rect x="144" y="1" width="8"  height="6" rx="1.5" fill="url(#weeklyGrad)"/>
  <rect x="156" y="0" width="10" height="8" rx="2" fill="rgba(255,255,255,0.06)" stroke="rgba(255,255,255,0.10)" stroke-width="1"/>
  <rect x="156" y="1" width="8"  height="6" rx="1.5" fill="url(#weeklyGrad)"/>
  <rect x="168" y="0" width="10" height="8" rx="2" fill="rgba(255,255,255,0.06)" stroke="rgba(255,255,255,0.10)" stroke-width="1"/>
  <rect x="168" y="1" width="8"  height="6" rx="1.5" fill="url(#weeklyGrad)"/>
  <rect x="180" y="0" width="10" height="8" rx="2" fill="rgba(255,255,255,0.06)" stroke="rgba(255,255,255,0.10)" stroke-width="1"/>
  <rect x="180" y="1" width="8"  height="6" rx="1.5" fill="url(#weeklyGrad)"/>
  <rect x="192" y="0" width="10" height="8" rx="2" fill="rgba(255,255,255,0.06)" stroke="rgba(255,255,255,0.10)" stroke-width="1"/>
  <rect x="192" y="1" width="8"  height="6" rx="1.5" fill="url(#weeklyGrad)"/>
  <rect x="204" y="0" width="10" height="8" rx="2" fill="rgba(255,255,255,0.06)" stroke="rgba(255,255,255,0.10)" stroke-width="1"/>
  <rect x="204" y="1" width="8"  height="6" rx="1.5" fill="url(#weeklyGrad)"/>
  <rect x="216" y="0" width="10" height="8" rx="2" fill="rgba(255,255,255,0.06)" stroke="rgba(255,255,255,0.10)" stroke-width="1"/>
  <rect x="216" y="1" width="8"  height="6" rx="1.5" fill="url(#weeklyGrad)"/>
  <rect x="228" y="0" width="10" height="8" rx="2" fill="rgba(255,255,255,0.06)" stroke="rgba(255,255,255,0.10)" stroke-width="1"/>
  <rect x="228" y="1" width="8"  height="6" rx="1.5" fill="url(#weeklyGrad)"/>
</g>

<!-- Footer -->
<text x="296" y="154" text-anchor="end" font-family="sans-serif" font-size="8" fill="rgba(255,255,255,0.25)">updated 21:18</text>

</svg>
