<svg xmlns="http://www.w3.org/2000/svg" viewBox="0 0 72 24" width="72" height="24">
  <!-- Panel Background -->
  <rect width="72" height="24" rx="4" fill="#0e327d"/>

  <!-- Logo (16px) -->
  <g transform="translate(6, 4) scale(0.67)">
    <path d="M 3.5,10 A 8.5,8.5 0 0,0 20.5,10" fill="none" stroke="#60a5fa" stroke-width="1.8" stroke-linecap="round" />
    <path d="M 6.5,10 A 5.5,5.5 0 0,0 17.5,10" fill="none" stroke="#60a5fa" stroke-width="1.8" stroke-linecap="round" opacity="0.6" />
    <path d="M 12,2 C 12,6.5 13.5,8 18,8 C 13.5,8 12,9.5 12,14 C 12,9.5 10.5,8 6,8 C 10.5,8 12,6.5 12,2 Z" fill="#60a5fa" />
    <path d="M 18.5,1.5 C 18.5,2.7 18.9,3.1 20.1,3.1 C 18.9,3.1 18.5,3.5 18.5,4.7 C 18.5,3.5 18.1,3.1 16.9,3.1 C 18.1,3.1 18.5,2.7 18.5,1.5 Z" fill="#60a5fa" />
  </g>

  <!-- Percentage text -->
  <text x="30" y="16" font-family="system-ui, -apple-system, sans-serif" font-size="11" font-weight="bold" fill="#ffffff">48%</text>
</svg>
