<svg viewBox="0 0 24 24" xmlns="http://www.w3.org/2000/svg">
  <!-- Outer Gauge/Usage Arc -->
  <path d="M 3.5,10 A 8.5,8.5 0 0,0 20.5,10" fill="none" stroke="currentColor" stroke-width="1.8" stroke-linecap="round" />
  
  <!-- Inner Gauge/Usage Arc -->
  <path d="M 6.5,10 A 5.5,5.5 0 0,0 17.5,10" fill="none" stroke="currentColor" stroke-width="1.8" stroke-linecap="round" opacity="0.6" />
  
  <!-- Large AI Spark -->
  <path d="M 12,2 C 12,6.5 13.5,8 18,8 C 13.5,8 12,9.5 12,14 C 12,9.5 10.5,8 6,8 C 10.5,8 12,6.5 12,2 Z" fill="currentColor" />
  
  <!-- Small AI Spark -->
  <path d="M 18.5,1.5 C 18.5,2.7 18.9,3.1 20.1,3.1 C 18.9,3.1 18.5,3.5 18.5,4.7 C 18.5,3.5 18.1,3.1 16.9,3.1 C 18.1,3.1 18.5,2.7 18.5,1.5 Z" fill="currentColor" />
</svg>
